<svg xmlns="http://www.w3.org/2000/svg" width="120" height="56" viewBox="0 0 120 56">
  <path id="パス_6794" data-name="パス 6794" d="M92.443,265.568s-5.449,0-5.449-5.438,5.449-5.437,5.449-5.437h10.323s5.449,0,5.449-5.438-5.449-5.437-5.449-5.437H79.8s-5.45,0-5.45-5.438,5.45-5.437,5.45-5.437h82.287s5.45,0,5.45,5.437-5.45,5.438-5.45,5.438H124.563s-5.449,0-5.449,5.437,5.449,5.438,5.449,5.438h13.989s5.45,0,5.45,5.437-5.45,5.438-5.45,5.438Zm52.149-45.125s5.45,0,5.45-5.437-5.45-5.438-5.45-5.438H117.346s-5.449,0-5.449,5.438,5.449,5.437,5.449,5.437ZM72.543,265.568s5.449,0,5.449-5.438-5.449-5.437-5.449-5.437H52.991s-5.45,0-5.45,5.437,5.45,5.438,5.45,5.438Z" transform="translate(-47.541 -209.568)" fill="#fff"/>
</svg>
