<svg xmlns="http://www.w3.org/2000/svg" width="34.166" height="30" viewBox="0 0 34.166 30">
  <g id="icon_menu" transform="translate(-508.674 -57.181)">
    <path id="パス_2" data-name="パス 2" d="M530.119,59.248V57.181h-8.767v2.067c-5.008,1.065-8.847,3.908-9.888,7.43h28.542C538.965,63.156,535.127,60.314,530.119,59.248Z" transform="translate(0.022)" fill="#d53128"/>
    <path id="パス_3" data-name="パス 3" d="M541.864,70.726a3.313,3.313,0,0,0,.976-2.218,2.672,2.672,0,0,0-.1-.734H508.779a2.673,2.673,0,0,0-.1.734,3.315,3.315,0,0,0,.977,2.218,16.152,16.152,0,0,0,11.323,14.4V87.1h9.567V85.125A16.152,16.152,0,0,0,541.864,70.726Z" transform="translate(0 0.084)" fill="#d53128"/>
  </g>
</svg>
