<svg xmlns="http://www.w3.org/2000/svg" width="266.898" height="131.627" viewBox="0 0 266.898 131.627">
  <path id="deco_w_r" d="M1302.7,1024.973s-12.78,0-12.78-12.781,12.78-12.78,12.78-12.78h32.807s12.78,0,12.78-12.781-12.78-12.78-12.78-12.78h-65.63s-12.78,0-12.78-12.781,12.78-12.78,12.78-12.78h170.6s12.78,0,12.78,12.78-12.78,12.781-12.78,12.781H1386.63s-12.78,0-12.78,12.78,12.78,12.781,12.78,12.781H1402.6s12.781,0,12.781,12.78-12.781,12.781-12.781,12.781Zm52.65-106.066s12.781,0,12.781-12.781-12.781-12.78-12.781-12.78h-36.532s-12.781,0-12.781,12.78,12.781,12.781,12.781,12.781ZM1254.7,1024.973s12.781,0,12.781-12.781-12.781-12.78-12.781-12.78h-55.557s-12.781,0-12.781,12.78,12.781,12.781,12.781,12.781Z" transform="translate(-1186.363 -893.346)" fill="#fff"/>
</svg>
