<svg xmlns="http://www.w3.org/2000/svg" width="120" height="56.125" viewBox="0 0 120 56.125">
  <path id="パス_6795" data-name="パス 6795" d="M92.443,209.568s-5.449,0-5.449,5.45,5.449,5.449,5.449,5.449h10.323s5.449,0,5.449,5.45-5.449,5.449-5.449,5.449H79.8s-5.45,0-5.45,5.45,5.45,5.449,5.45,5.449h82.287s5.45,0,5.45-5.449-5.45-5.45-5.45-5.45H124.563s-5.449,0-5.449-5.449,5.449-5.45,5.449-5.45h13.989s5.45,0,5.45-5.449-5.45-5.45-5.45-5.45Zm52.149,45.226s5.45,0,5.45,5.449-5.45,5.45-5.45,5.45H117.346s-5.449,0-5.449-5.45,5.449-5.449,5.449-5.449ZM72.543,209.568s5.449,0,5.449,5.45-5.449,5.449-5.449,5.449H52.991s-5.45,0-5.45-5.449,5.45-5.45,5.45-5.45Z" transform="translate(-47.541 -209.568)" fill="#fff"/>
</svg>
