<svg xmlns="http://www.w3.org/2000/svg" width="281.432" height="76.683" viewBox="0 0 281.432 76.683">
  <path id="パス_6958" data-name="パス 6958" d="M223.667,209.568s12.78,0,12.78,12.781-12.78,12.78-12.78,12.78h-24.21s-12.78,0-12.78,12.781,12.78,12.78,12.78,12.78h53.85s12.781,0,12.781,12.781-12.781,12.78-12.781,12.78H60.322s-12.781,0-12.781-12.78S60.322,260.69,60.322,260.69h88.013s12.78,0,12.78-12.78-12.78-12.781-12.78-12.781H115.528s-12.781,0-12.781-12.78,12.781-12.781,12.781-12.781Zm46.67,0s-12.78,0-12.78,12.781,12.78,12.78,12.78,12.78h45.855s12.781,0,12.781-12.78-12.781-12.781-12.781-12.781Z" transform="translate(-47.541 -209.568)" fill="#fff"/>
</svg>
