<svg xmlns="http://www.w3.org/2000/svg" width="25" height="25" viewBox="0 0 25 25">
  <path id="パス_6960" data-name="パス 6960" d="M1300.087,797.939a5.152,5.152,0,0,0-1.422-.348v-.082h-.069a5.383,5.383,0,0,0-1.555-3.156c-2.741-2.7-8.487-2.635-11.217.109l-.035.035a5.454,5.454,0,0,0-1.513,3.217h-.061v.049a5.354,5.354,0,0,0-3.21,1.565c-2.763,2.792-2.78,8.462-.033,11.236a5.367,5.367,0,0,0,3.18,1.544v.057h.094a5.216,5.216,0,0,0,.353,1.4c.956,2.342,3.563,3.8,6.8,3.8a7.979,7.979,0,0,0,5.719-2.089,5.367,5.367,0,0,0,1.176-1.762,5.272,5.272,0,0,0,.356-1.413h.088v-.077a5.192,5.192,0,0,0,1.424-.379c2.348-1,3.788-3.659,3.756-6.937C1303.891,801.475,1302.422,798.881,1300.087,797.939Zm-13.534,7.921a1.041,1.041,0,0,1,0-2.081c.572,0,2,.466,2,1.041S1287.125,805.86,1286.553,805.86Zm4.87,4.894a1.038,1.038,0,0,1-1.035-1.041c0-.575.463-2.007,1.035-2.007s1.036,1.432,1.036,2.007A1.038,1.038,0,0,1,1291.423,810.754Zm0-8.822c-.572,0-1.035-1.432-1.035-2.007a1.036,1.036,0,1,1,2.071,0C1292.458,800.5,1291.995,801.933,1291.423,801.933Zm4.869,3.927c-.572,0-2-.466-2-1.04s1.425-1.041,2-1.041a1.041,1.041,0,0,1,0,2.081Z" transform="translate(-1278.922 -792.367)" fill="#d53128"/>
</svg>
