<svg xmlns="http://www.w3.org/2000/svg" xmlns:xlink="http://www.w3.org/1999/xlink" width="39.621" height="33.195" viewBox="0 0 39.621 33.195">
  <defs>
    <clipPath id="clip-path">
      <rect id="長方形_2191" data-name="長方形 2191" width="39.621" height="33.195" transform="translate(0 0)" fill="none"/>
    </clipPath>
  </defs>
  <g id="グループ_3083" data-name="グループ 3083" transform="translate(3 2.741)">
    <g id="グループ_3082" data-name="グループ 3082" transform="translate(-3 -2.741)" clip-path="url(#clip-path)">
      <path id="パス_6818" data-name="パス 6818" d="M39.621,16.6c0,9.167-8.87,16.6-19.811,16.6S0,25.764,0,16.6,8.87,0,19.811,0,39.621,7.43,39.621,16.6" transform="translate(0 0)" fill="#d53128"/>
      <path id="パス_6819" data-name="パス 6819" d="M4.663,21.263l-1.52,7.386L10.336,26.3Z" transform="translate(0.622 4.206)" fill="#d53128"/>
      <path id="パス_6820" data-name="パス 6820" d="M11.562,14.158A1.828,1.828,0,1,1,9.734,12.33a1.828,1.828,0,0,1,1.828,1.828" transform="translate(1.564 2.439)" fill="#fff"/>
      <path id="パス_6821" data-name="パス 6821" d="M18.669,14.158a1.828,1.828,0,1,1-1.828-1.828,1.828,1.828,0,0,1,1.828,1.828" transform="translate(2.97 2.439)" fill="#fff"/>
      <path id="パス_6822" data-name="パス 6822" d="M25.777,14.158a1.828,1.828,0,1,1-1.828-1.828,1.828,1.828,0,0,1,1.828,1.828" transform="translate(4.376 2.439)" fill="#fff"/>
    </g>
  </g>
</svg>
