<svg xmlns="http://www.w3.org/2000/svg" width="48.703" height="30" viewBox="0 0 48.703 30">
  <g id="icon_lunch" transform="translate(-874.418 -57.422)">
    <path id="パス_4" data-name="パス 4" d="M897.548,75.8v1.974a2.917,2.917,0,0,0-2.715-2.5h-2.147a2.871,2.871,0,0,0-2.654,2.245V75.8c0-1.12-1.7-1.965-3.954-1.965s-3.954.845-3.954,1.965v1.208a2.77,2.77,0,0,0-2.47-1.738h-2.146a3.047,3.047,0,0,0-2.793,3.248v3.82a3.047,3.047,0,0,0,2.793,3.248h2.146a2.77,2.77,0,0,0,2.47-1.738V85c0,1.12,1.7,1.964,3.954,1.964s3.954-.844,3.954-1.964V83.34a2.871,2.871,0,0,0,2.654,2.245h2.147a2.917,2.917,0,0,0,2.715-2.5V85c0,1.12,1.7,1.964,3.954,1.964s3.954-.844,3.954-1.964V83.6a2.822,2.822,0,0,0,2.573,1.985h2.146a3.046,3.046,0,0,0,2.792-3.248V81.184h9.29a.855.855,0,0,0,0-1.709h-9.29v-.957a3.046,3.046,0,0,0-2.792-3.248H908.03a2.822,2.822,0,0,0-2.573,1.985V75.8c0-1.12-1.7-1.965-3.954-1.965S897.548,74.679,897.548,75.8Zm-11.471-1.218c1.987,0,3.207.709,3.207,1.218s-1.22,1.218-3.207,1.218-3.206-.71-3.206-1.218S884.091,74.581,886.078,74.581Zm0,11.635a7.581,7.581,0,0,1-1.042-.07.336.336,0,0,0,.013-.064V81.676a.374.374,0,1,0-.747,0V86c-.91-.25-1.43-.665-1.43-1V76.978c.016.011.036.021.052.032.057.037.115.072.177.107l.1.053c.069.036.142.07.216.1.03.013.059.028.088.04.108.044.219.087.337.125l.011,0c.113.036.23.07.352.1l.123.029c.087.021.177.04.269.058l.149.026c.088.015.18.029.271.04l.156.02c.1.01.2.019.3.026.047,0,.094.008.142.01.151.008.3.013.461.013s.309-.005.461-.013l.089-.005v4.174a.374.374,0,0,0,.747,0V77.662l.037-.006.149-.026c.092-.017.181-.037.268-.058l.123-.029c.121-.031.24-.065.352-.1l.012,0c.117-.038.228-.081.336-.125.031-.012.059-.027.088-.04.075-.033.147-.067.216-.1.034-.017.066-.035.1-.053.062-.035.12-.07.177-.107.018-.011.037-.021.053-.032V85C889.285,85.508,888.065,86.216,886.078,86.216ZM904.71,85c0,.509-1.22,1.217-3.207,1.217a7.564,7.564,0,0,1-1.041-.07.44.44,0,0,0,.012-.064V81.676a.374.374,0,1,0-.747,0V86c-.911-.25-1.431-.665-1.431-1V76.978l.055.033q.082.054.173.1l.1.056c.067.035.137.068.209.1l.1.043c.106.044.217.085.333.124l.026.007c.109.035.222.068.338.1l.129.03c.086.02.173.039.263.057l.152.026c.088.015.178.029.269.04l.158.02c.1.01.2.019.3.026.048,0,.095.008.143.01.151.008.3.013.461.013s.31-.005.461-.013l.089-.005v4.174a.374.374,0,0,0,.747,0V77.662l.037-.006.149-.026c.091-.017.181-.037.269-.058l.122-.029c.121-.031.24-.065.353-.1l.011,0c.117-.038.229-.081.336-.125.031-.012.059-.027.088-.04.075-.033.147-.067.216-.1.034-.017.066-.035.1-.053.062-.035.12-.07.177-.107.017-.011.037-.021.053-.032Zm0-9.2c0,.508-1.22,1.218-3.207,1.218s-3.207-.71-3.207-1.218,1.22-1.218,3.207-1.218S904.71,75.291,904.71,75.8Z" transform="translate(0.008 0.458)" fill="#d53128"/>
    <path id="パス_5" data-name="パス 5" d="M891.618,58.451a51.165,51.165,0,0,1-3.159-1.029v0h-.035a50.788,50.788,0,0,1-3.152,1.043,2.54,2.54,0,0,0-.948,1.364,2.463,2.463,0,0,0-.255.207,2.591,2.591,0,0,0-.289-.231,8.124,8.124,0,0,0-4.117-2.386v0h-.031a51.491,51.491,0,0,1-3.156,1.043,2.555,2.555,0,0,0-.944,1.364,2.56,2.56,0,0,0-.961,3,2.574,2.574,0,0,0,.985,2.984,2.547,2.547,0,0,0,.958,1.355h0a57.045,57.045,0,0,1,3.163,1.016,53.121,53.121,0,0,1,3.159-1.033,2.577,2.577,0,0,0,.951-1.361,2.486,2.486,0,0,0,.264-.212,2.517,2.517,0,0,0,.3.235,6.447,6.447,0,0,0,7.28,1.337v0a2.538,2.538,0,0,0,.95-1.358.288.288,0,0,1,.561.024,2.551,2.551,0,0,0,.957,1.355,53.8,53.8,0,0,1,3.163,1.019,51.852,51.852,0,0,1,3.16-1.036,2.557,2.557,0,0,0,.95-1.361,2.609,2.609,0,0,0,.265-.213,2.51,2.51,0,0,0,.3.236,2.547,2.547,0,0,0,.958,1.355,52.889,52.889,0,0,1,3.166,1.019,50.523,50.523,0,0,1,3.156-1.036,2.559,2.559,0,0,0,.951-1.361,2.508,2.508,0,0,0,1.113-2.008h10.989a.855.855,0,0,0,0-1.709H911.275a2.548,2.548,0,0,0-1.117-2.263,8.076,8.076,0,0,0-4.117-2.383h0a.043.043,0,0,0-.028,0,52.124,52.124,0,0,1-3.156,1.043,2.56,2.56,0,0,0-.947,1.364,2.674,2.674,0,0,0-.254.206,2.576,2.576,0,0,0-.287-.23,8.076,8.076,0,0,0-4.117-2.383h0a.04.04,0,0,0-.027,0,52.12,52.12,0,0,1-3.156,1.043,2.568,2.568,0,0,0-.948,1.36,2.642,2.642,0,0,0-.255.209,2.689,2.689,0,0,0-.289-.229A2.516,2.516,0,0,0,891.618,58.451Z" transform="translate(0)" fill="#d53128"/>
  </g>
</svg>
