<svg xmlns="http://www.w3.org/2000/svg" width="59.873" height="16.337" viewBox="0 0 59.873 16.337">
  <g id="グループ_3363" data-name="グループ 3363" transform="translate(-689.567 -399)">
    <path id="パス_6961" data-name="パス 6961" d="M280.312,0h-6.248a.65.65,0,0,0-.65.65V5.688a.65.65,0,0,0,.65.65h6.248a.65.65,0,0,0,.65-.65V.653a.65.65,0,0,0-.65-.65" transform="translate(428.346 398.997)" fill="#d53128"/>
    <path id="パス_6962" data-name="パス 6962" d="M710.39,0h-6.248a.65.65,0,0,0-.65.65V5.688a.65.65,0,0,0,.65.65h6.248a.65.65,0,0,0,.65-.65V.653a.65.65,0,0,0-.65-.65" transform="translate(26.206 398.997)" fill="#d53128"/>
    <path id="パス_6963" data-name="パス 6963" d="M144.922,127.524H86.348a.65.65,0,0,0-.65.65v6.754a.65.65,0,0,0,.65.65h58.574a.65.65,0,0,0,.65-.65v-6.754a.65.65,0,0,0-.65-.65" transform="translate(603.869 279.76)" fill="#d53128"/>
  </g>
</svg>
