<svg xmlns="http://www.w3.org/2000/svg" width="71.007" height="52.345" viewBox="0 0 71.007 52.345">
  <g id="グループ_3362" data-name="グループ 3362" transform="translate(-684 -417.286)">
    <path id="パス_6964" data-name="パス 6964" d="M233.872,296.81V282.145a.65.65,0,0,0-.65-.65H187.834a.65.65,0,0,0-.65.65V296.81a.65.65,0,0,0,.65.65h45.389a.65.65,0,0,0,.65-.65" transform="translate(508.976 135.791)" fill="#d53128"/>
    <path id="パス_6965" data-name="パス 6965" d="M70.358,557.248H.65a.65.65,0,0,0-.65.65v7.047a.65.65,0,0,0,.65.65H70.358a.65.65,0,0,0,.65-.65V557.9a.65.65,0,0,0-.65-.65" transform="translate(684 -122.049)" fill="#d53128"/>
    <path id="パス_6966" data-name="パス 6966" d="M190.1,739.866H138.27a.65.65,0,0,1-.65-.65V716.379a.65.65,0,0,1,.65-.65H190.1a.65.65,0,0,1,.65.65v22.838a.65.65,0,0,1-.65.65m-18.91-13.676h-3.23a3.167,3.167,0,0,0-3.167-3.167h-1.212a3.167,3.167,0,0,0-3.167,3.167h-3.23a3.192,3.192,0,1,0,0,6.383h14.008a3.192,3.192,0,0,0,0-6.383" transform="translate(555.32 -270.235)" fill="#d53128"/>
  </g>
</svg>
