<svg xmlns="http://www.w3.org/2000/svg" width="204.239" height="5.583" viewBox="0 0 204.239 5.583">
  <g id="menu_line" transform="translate(-240 -1876.677)">
    <rect id="長方形_1324" data-name="長方形 1324" width="2.798" height="2.792" transform="translate(240 1876.677)" fill="#d53128"/>
    <rect id="長方形_1325" data-name="長方形 1325" width="2.798" height="2.791" transform="translate(242.798 1879.469)" fill="#d53128"/>
    <rect id="長方形_1326" data-name="長方形 1326" width="2.798" height="2.792" transform="translate(245.596 1876.677)" fill="#d53128"/>
    <rect id="長方形_1327" data-name="長方形 1327" width="2.797" height="2.791" transform="translate(248.394 1879.469)" fill="#d53128"/>
    <rect id="長方形_1328" data-name="長方形 1328" width="2.798" height="2.792" transform="translate(251.19 1876.677)" fill="#d53128"/>
    <rect id="長方形_1329" data-name="長方形 1329" width="2.798" height="2.791" transform="translate(253.988 1879.469)" fill="#d53128"/>
    <rect id="長方形_1330" data-name="長方形 1330" width="2.798" height="2.792" transform="translate(256.786 1876.677)" fill="#d53128"/>
    <rect id="長方形_1331" data-name="長方形 1331" width="2.798" height="2.791" transform="translate(259.584 1879.469)" fill="#d53128"/>
    <rect id="長方形_1332" data-name="長方形 1332" width="2.798" height="2.792" transform="translate(262.382 1876.677)" fill="#d53128"/>
    <rect id="長方形_1333" data-name="長方形 1333" width="2.798" height="2.791" transform="translate(265.18 1879.469)" fill="#d53128"/>
    <rect id="長方形_1334" data-name="長方形 1334" width="2.798" height="2.792" transform="translate(267.978 1876.677)" fill="#d53128"/>
    <rect id="長方形_1335" data-name="長方形 1335" width="2.798" height="2.791" transform="translate(270.775 1879.469)" fill="#d53128"/>
    <rect id="長方形_1336" data-name="長方形 1336" width="2.798" height="2.792" transform="translate(273.573 1876.677)" fill="#d53128"/>
    <rect id="長方形_1337" data-name="長方形 1337" width="2.798" height="2.791" transform="translate(276.371 1879.469)" fill="#d53128"/>
    <rect id="長方形_1338" data-name="長方形 1338" width="2.798" height="2.792" transform="translate(279.169 1876.677)" fill="#d53128"/>
    <rect id="長方形_1339" data-name="長方形 1339" width="2.798" height="2.791" transform="translate(281.967 1879.469)" fill="#d53128"/>
    <rect id="長方形_1340" data-name="長方形 1340" width="2.798" height="2.792" transform="translate(284.765 1876.677)" fill="#d53128"/>
    <rect id="長方形_1341" data-name="長方形 1341" width="2.798" height="2.791" transform="translate(287.563 1879.469)" fill="#d53128"/>
    <rect id="長方形_1342" data-name="長方形 1342" width="2.798" height="2.792" transform="translate(290.36 1876.677)" fill="#d53128"/>
    <rect id="長方形_1343" data-name="長方形 1343" width="2.798" height="2.791" transform="translate(293.158 1879.469)" fill="#d53128"/>
    <rect id="長方形_1344" data-name="長方形 1344" width="2.798" height="2.792" transform="translate(295.956 1876.677)" fill="#d53128"/>
    <rect id="長方形_1345" data-name="長方形 1345" width="2.798" height="2.791" transform="translate(298.754 1879.469)" fill="#d53128"/>
    <rect id="長方形_1346" data-name="長方形 1346" width="2.798" height="2.792" transform="translate(301.552 1876.677)" fill="#d53128"/>
    <rect id="長方形_1347" data-name="長方形 1347" width="2.798" height="2.791" transform="translate(304.35 1879.469)" fill="#d53128"/>
    <rect id="長方形_1348" data-name="長方形 1348" width="2.798" height="2.792" transform="translate(307.147 1876.677)" fill="#d53128"/>
    <rect id="長方形_1349" data-name="長方形 1349" width="2.797" height="2.791" transform="translate(309.945 1879.469)" fill="#d53128"/>
    <rect id="長方形_1350" data-name="長方形 1350" width="2.798" height="2.792" transform="translate(312.742 1876.677)" fill="#d53128"/>
    <rect id="長方形_1351" data-name="長方形 1351" width="2.798" height="2.791" transform="translate(315.54 1879.469)" fill="#d53128"/>
    <rect id="長方形_1352" data-name="長方形 1352" width="2.798" height="2.792" transform="translate(318.338 1876.677)" fill="#d53128"/>
    <rect id="長方形_1353" data-name="長方形 1353" width="2.798" height="2.791" transform="translate(321.136 1879.469)" fill="#d53128"/>
    <rect id="長方形_1354" data-name="長方形 1354" width="2.798" height="2.792" transform="translate(323.934 1876.677)" fill="#d53128"/>
    <rect id="長方形_1355" data-name="長方形 1355" width="2.798" height="2.791" transform="translate(326.731 1879.469)" fill="#d53128"/>
    <rect id="長方形_1356" data-name="長方形 1356" width="2.798" height="2.792" transform="translate(329.529 1876.677)" fill="#d53128"/>
    <rect id="長方形_1357" data-name="長方形 1357" width="2.798" height="2.791" transform="translate(332.327 1879.469)" fill="#d53128"/>
    <rect id="長方形_1358" data-name="長方形 1358" width="2.798" height="2.792" transform="translate(335.125 1876.677)" fill="#d53128"/>
    <rect id="長方形_1359" data-name="長方形 1359" width="2.798" height="2.791" transform="translate(337.923 1879.469)" fill="#d53128"/>
    <rect id="長方形_1360" data-name="長方形 1360" width="2.798" height="2.792" transform="translate(340.721 1876.677)" fill="#d53128"/>
    <rect id="長方形_1361" data-name="長方形 1361" width="2.798" height="2.791" transform="translate(343.519 1879.469)" fill="#d53128"/>
    <rect id="長方形_1362" data-name="長方形 1362" width="2.798" height="2.792" transform="translate(346.316 1876.677)" fill="#d53128"/>
    <rect id="長方形_1363" data-name="長方形 1363" width="2.798" height="2.791" transform="translate(349.114 1879.469)" fill="#d53128"/>
    <rect id="長方形_1364" data-name="長方形 1364" width="2.798" height="2.792" transform="translate(351.912 1876.677)" fill="#d53128"/>
    <rect id="長方形_1365" data-name="長方形 1365" width="2.798" height="2.791" transform="translate(354.71 1879.469)" fill="#d53128"/>
    <rect id="長方形_1366" data-name="長方形 1366" width="2.798" height="2.792" transform="translate(357.508 1876.677)" fill="#d53128"/>
    <rect id="長方形_1367" data-name="長方形 1367" width="2.798" height="2.791" transform="translate(360.306 1879.469)" fill="#d53128"/>
    <rect id="長方形_1368" data-name="長方形 1368" width="2.798" height="2.792" transform="translate(363.104 1876.677)" fill="#d53128"/>
    <rect id="長方形_1369" data-name="長方形 1369" width="2.798" height="2.791" transform="translate(365.901 1879.469)" fill="#d53128"/>
    <rect id="長方形_1370" data-name="長方形 1370" width="2.798" height="2.792" transform="translate(368.699 1876.677)" fill="#d53128"/>
    <rect id="長方形_1371" data-name="長方形 1371" width="2.797" height="2.791" transform="translate(371.497 1879.469)" fill="#d53128"/>
    <rect id="長方形_1372" data-name="長方形 1372" width="2.798" height="2.792" transform="translate(374.294 1876.677)" fill="#d53128"/>
    <rect id="長方形_1373" data-name="長方形 1373" width="2.798" height="2.791" transform="translate(377.092 1879.469)" fill="#d53128"/>
    <rect id="長方形_1374" data-name="長方形 1374" width="2.798" height="2.792" transform="translate(379.89 1876.677)" fill="#d53128"/>
    <rect id="長方形_1375" data-name="長方形 1375" width="2.798" height="2.791" transform="translate(382.688 1879.469)" fill="#d53128"/>
    <rect id="長方形_1376" data-name="長方形 1376" width="2.798" height="2.792" transform="translate(385.485 1876.677)" fill="#d53128"/>
    <rect id="長方形_1377" data-name="長方形 1377" width="2.798" height="2.791" transform="translate(388.283 1879.469)" fill="#d53128"/>
    <rect id="長方形_1378" data-name="長方形 1378" width="2.798" height="2.792" transform="translate(391.081 1876.677)" fill="#d53128"/>
    <rect id="長方形_1379" data-name="長方形 1379" width="2.798" height="2.791" transform="translate(393.879 1879.469)" fill="#d53128"/>
    <rect id="長方形_1380" data-name="長方形 1380" width="2.798" height="2.792" transform="translate(396.677 1876.677)" fill="#d53128"/>
    <rect id="長方形_1381" data-name="長方形 1381" width="2.798" height="2.791" transform="translate(399.475 1879.469)" fill="#d53128"/>
    <rect id="長方形_1382" data-name="長方形 1382" width="2.798" height="2.792" transform="translate(402.272 1876.677)" fill="#d53128"/>
    <rect id="長方形_1383" data-name="長方形 1383" width="2.798" height="2.791" transform="translate(405.07 1879.469)" fill="#d53128"/>
    <rect id="長方形_1384" data-name="長方形 1384" width="2.798" height="2.792" transform="translate(407.868 1876.677)" fill="#d53128"/>
    <rect id="長方形_1385" data-name="長方形 1385" width="2.798" height="2.791" transform="translate(410.666 1879.469)" fill="#d53128"/>
    <rect id="長方形_1386" data-name="長方形 1386" width="2.798" height="2.792" transform="translate(413.464 1876.677)" fill="#d53128"/>
    <rect id="長方形_1387" data-name="長方形 1387" width="2.798" height="2.791" transform="translate(416.262 1879.469)" fill="#d53128"/>
    <rect id="長方形_1388" data-name="長方形 1388" width="2.798" height="2.792" transform="translate(419.06 1876.677)" fill="#d53128"/>
    <rect id="長方形_1389" data-name="長方形 1389" width="2.798" height="2.791" transform="translate(421.857 1879.469)" fill="#d53128"/>
    <rect id="長方形_1390" data-name="長方形 1390" width="2.798" height="2.792" transform="translate(424.655 1876.677)" fill="#d53128"/>
    <rect id="長方形_1391" data-name="長方形 1391" width="2.798" height="2.791" transform="translate(427.453 1879.469)" fill="#d53128"/>
    <rect id="長方形_1392" data-name="長方形 1392" width="2.798" height="2.792" transform="translate(430.251 1876.677)" fill="#d53128"/>
    <rect id="長方形_1393" data-name="長方形 1393" width="2.798" height="2.791" transform="translate(433.049 1879.469)" fill="#d53128"/>
    <rect id="長方形_1394" data-name="長方形 1394" width="2.797" height="2.792" transform="translate(435.847 1876.677)" fill="#d53128"/>
    <rect id="長方形_1395" data-name="長方形 1395" width="2.798" height="2.791" transform="translate(438.644 1879.469)" fill="#d53128"/>
    <rect id="長方形_1396" data-name="長方形 1396" width="2.798" height="2.792" transform="translate(441.441 1876.677)" fill="#d53128"/>
  </g>
</svg>
