<svg xmlns="http://www.w3.org/2000/svg" width="281.432" height="131.627" viewBox="0 0 281.432 131.627">
  <path id="deco_y_l" d="M223.667,209.568s12.78,0,12.78,12.781-12.78,12.78-12.78,12.78h-24.21s-12.78,0-12.78,12.781,12.78,12.78,12.78,12.78h53.85s12.781,0,12.781,12.781-12.781,12.78-12.781,12.78H60.322s-12.781,0-12.781-12.78S60.322,260.69,60.322,260.69h88.013s12.78,0,12.78-12.78-12.78-12.781-12.78-12.781H115.528s-12.781,0-12.781-12.78,12.781-12.781,12.781-12.781Zm-122.3,106.066s-12.781,0-12.781,12.78S101.364,341.2,101.364,341.2h63.9s12.78,0,12.78-12.781-12.78-12.78-12.78-12.78ZM270.337,209.568s-12.78,0-12.78,12.781,12.78,12.78,12.78,12.78h45.855s12.781,0,12.781-12.78-12.781-12.781-12.781-12.781Z" transform="translate(-47.541 -209.568)" fill="#ffd175"/>
</svg>
