<svg xmlns="http://www.w3.org/2000/svg" width="26.857" height="30" viewBox="0 0 26.857 30">
  <g id="icon_preference" transform="translate(-353.389 -94.166)">
    <path id="パス_7" data-name="パス 7" d="M363.3,119.645a2.425,2.425,0,0,0-.666-.162v-.038H362.6a2.508,2.508,0,0,0-.728-1.47,4.1,4.1,0,0,0-5.25.051l-.017.017a2.535,2.535,0,0,0-.708,1.5h-.028v.023a2.513,2.513,0,0,0-1.5.728,4.023,4.023,0,0,0-.015,5.233,2.513,2.513,0,0,0,1.489.72v.026h.043a2.409,2.409,0,0,0,.165.654,3.262,3.262,0,0,0,3.185,1.769,3.745,3.745,0,0,0,2.677-.973,2.509,2.509,0,0,0,.551-.821,2.459,2.459,0,0,0,.166-.658h.042v-.036a2.418,2.418,0,0,0,.667-.176,3.3,3.3,0,0,0,1.758-3.231A3.253,3.253,0,0,0,363.3,119.645Zm-6.335,3.689a.484.484,0,1,1,0-.969c.268,0,.934.217.934.484S357.229,123.334,356.961,123.334Zm2.28,2.28a.485.485,0,0,1-.485-.484c0-.268.217-.934.485-.934s.484.667.484.934A.485.485,0,0,1,359.241,125.613Zm0-4.109c-.268,0-.485-.667-.485-.935a.485.485,0,0,1,.97,0C359.725,120.838,359.508,121.5,359.241,121.5Zm2.279,1.829c-.267,0-.934-.217-.934-.484s.667-.484.934-.484a.484.484,0,1,1,0,.969Z" transform="translate(0 -4.528)" fill="#d53128"/>
    <path id="パス_8" data-name="パス 8" d="M378.479,98.817a4.327,4.327,0,0,0-1.193-.29v-.068h-.058a4.489,4.489,0,0,0-1.3-2.635c-2.3-2.252-7.12-2.2-9.41.091l-.03.03a4.546,4.546,0,0,0-1.269,2.685h-.051v.041a4.5,4.5,0,0,0-2.693,1.307,7.209,7.209,0,0,0-.027,9.379,4.508,4.508,0,0,0,2.667,1.289v.047h.079a4.307,4.307,0,0,0,.3,1.172c.8,1.955,2.989,3.169,5.708,3.169a6.714,6.714,0,0,0,4.8-1.744,4.48,4.48,0,0,0,.987-1.471,4.367,4.367,0,0,0,.3-1.18h.075v-.064a4.4,4.4,0,0,0,1.2-.316c1.97-.836,3.178-3.055,3.152-5.791C381.67,101.768,380.437,99.6,378.479,98.817Zm-11.354,6.611a.868.868,0,1,1,0-1.737c.48,0,1.675.389,1.675.869S367.6,105.428,367.125,105.428Zm4.085,4.085a.868.868,0,0,1-.869-.868c0-.48.389-1.676.869-1.676s.869,1.2.869,1.676A.868.868,0,0,1,371.21,109.513Zm0-7.364c-.48,0-.869-1.2-.869-1.675a.869.869,0,0,1,1.737,0C372.079,100.954,371.69,102.15,371.21,102.15Zm4.085,3.278c-.48,0-1.676-.388-1.676-.868s1.2-.869,1.676-.869a.868.868,0,1,1,0,1.737Z" transform="translate(-1.451)" fill="#d53128"/>
  </g>
</svg>
