<svg xmlns="http://www.w3.org/2000/svg" width="32.058" height="30" viewBox="0 0 32.058 30">
  <g id="icon_recruit" transform="translate(-992.522 -96.455)">
    <path id="パス_9" data-name="パス 9" d="M1001.162,122.036a.313.313,0,0,0-.071-.618.3.3,0,0,0-.07.008.313.313,0,0,0,.141.611Z" transform="translate(-0.214 -0.648)" fill="#d53128"/>
    <path id="パス_10" data-name="パス 10" d="M1022.863,104.11a14.355,14.355,0,0,0-6.665-6.283c-.351-.17-.71-.314-1.072-.451A10.659,10.659,0,0,0,1014,97a14.25,14.25,0,0,0-2.321-.453,15.945,15.945,0,0,0-4.681.183,14.909,14.909,0,0,0-8.293,4.485,12.055,12.055,0,0,0-2.533,4.3,12.691,12.691,0,0,0-.6,4.952c.033.41.078.816.139,1.219a6.616,6.616,0,0,0,.27,1.181c.13.381.282.75.4,1.126s.233.751.36,1.121c.259.739.556,1.454.866,2.161.014.031.029.061.044.093a7.748,7.748,0,0,1-3.492.077c-1.034-.306-1.915.626-1.556,2.049.447,1.777,1.549,1.562,2.677,1.307a5.254,5.254,0,0,0,2.991-2.14c.05.1.1.2.151.3a5.771,5.771,0,0,1,.2.89,3.925,3.925,0,0,0,1.2,2.666c1.377,1.222,4.177,1.25,4.923.635,1.062-.875.885-3.19-.644-5.225a7.858,7.858,0,0,0-1.13-1.128c-.045-.065-.092-.13-.143-.192s-.092-.119-.139-.178a4.919,4.919,0,0,0,2.835-1.114c.874-.759,1.7-1.52.53-2.932-.936-1.131-2.208-.972-2.573.043a7.223,7.223,0,0,1-1.854,2.518,14.153,14.153,0,0,1-.8-1.464c-.122-.278-.251-.553-.35-.837a4.1,4.1,0,0,1-.185-.873c-.037-.294-.11-.573-.169-.855s-.1-.565-.135-.846a7.977,7.977,0,0,1,1.786-6.183,11.059,11.059,0,0,1,5.988-3.537,12.316,12.316,0,0,1,3.606-.3,11.749,11.749,0,0,1,9.048,5.451,12.684,12.684,0,0,1,1.809,7.225,10.75,10.75,0,0,1-.84,3.68,13.079,13.079,0,0,1-2.132,3.214,14.18,14.18,0,0,1-2.77,2.417,21.939,21.939,0,0,1-2.912-.276,4.071,4.071,0,0,0-3.777,1.274,1.861,1.861,0,0,0-.458,2.023,2.905,2.905,0,0,0,2.777,1.4h.1c2.746,0,4.5-2.536,5.075-3.506a14.481,14.481,0,0,0,1.41-.822,14.81,14.81,0,0,0,1.721-1.365,14.615,14.615,0,0,0,1.5-1.618,11.552,11.552,0,0,0,1.248-1.882,12.892,12.892,0,0,0,1.315-4.324A15,15,0,0,0,1022.863,104.11ZM997.3,118.574a3.8,3.8,0,0,1-.745.452,4.933,4.933,0,0,1-.811.3,4.338,4.338,0,0,1-.868.141,3.86,3.86,0,0,1-.908-.044.36.36,0,0,1,.124-.709l.04.01.015,0a3.225,3.225,0,0,0,.724.114,3.84,3.84,0,0,0,.762-.038,4.47,4.47,0,0,0,.757-.185,3.544,3.544,0,0,0,.7-.32l.013-.008a.175.175,0,0,1,.2.285Zm5.122-3.282.015-.006a3.587,3.587,0,0,0,.672-.373,4.431,4.431,0,0,0,.6-.5,3.778,3.778,0,0,0,.482-.59,3.267,3.267,0,0,0,.338-.65l0-.014a.36.36,0,0,1,.677.243.265.265,0,0,1-.016.038,3.8,3.8,0,0,1-.5.759,4.315,4.315,0,0,1-.626.618,4.969,4.969,0,0,1-.72.479,3.852,3.852,0,0,1-.805.336.18.18,0,0,1-.116-.341Zm-1.733,4.96a.852.852,0,1,1-.64,1.021A.855.855,0,0,1,1000.686,120.252Zm11.513,5.486h-.08c-1.088-.024-1.886-.384-2.133-.962a1.162,1.162,0,0,1,.329-1.256,3.372,3.372,0,0,1,2.505-1.117,2.645,2.645,0,0,1,.581.059,15.249,15.249,0,0,0,2,.235,12.268,12.268,0,0,1-2.829,1.156l-.015,0a.193.193,0,0,0,.053.38,9.406,9.406,0,0,0,2.129-.326,11.33,11.33,0,0,0,1.282-.409A5.129,5.129,0,0,1,1012.2,125.738Z" transform="translate(0 0)" fill="#d53128"/>
  </g>
</svg>
