<svg xmlns="http://www.w3.org/2000/svg" width="72" height="80" viewBox="0 0 72 80">
  <g id="グループ_3112" data-name="グループ 3112" transform="translate(-1141 -790)">
    <path id="パス_6823" data-name="パス 6823" d="M1349.094,729.7a10.318,10.318,0,0,0-2.845-.7v-.163l-.137,0A10.776,10.776,0,0,0,1343,722.53c-5.482-5.394-16.973-5.27-22.433.218l-.07.071a10.912,10.912,0,0,0-3.025,6.433l-.122,0v.1a10.716,10.716,0,0,0-6.419,3.13c-5.527,5.583-5.56,16.923-.065,22.472a10.735,10.735,0,0,0,6.359,3.089v.113h.187a10.375,10.375,0,0,0,.707,2.808c1.911,4.684,7.124,7.594,13.606,7.594,4.74,0,8.81-1.537,11.438-4.177a10.758,10.758,0,0,0,2.352-3.526,10.528,10.528,0,0,0,.711-2.827h.177v-.153a10.449,10.449,0,0,0,2.85-.757c4.7-2,7.575-7.319,7.512-13.875C1356.7,736.772,1353.761,731.584,1349.094,729.7Zm-27.069,15.843a2.081,2.081,0,0,1,0-4.162c1.144,0,3.994.932,3.994,2.081S1323.169,745.543,1322.025,745.543Zm9.739,9.789a2.076,2.076,0,0,1-2.071-2.082c0-1.149.927-4.014,2.071-4.014s2.071,2.865,2.071,4.014A2.076,2.076,0,0,1,1331.764,755.331Zm0-17.644c-1.144,0-2.071-2.864-2.071-4.015a2.071,2.071,0,1,1,4.142,0C1333.835,734.823,1332.908,737.687,1331.764,737.687Zm9.739,7.856c-1.144,0-3.994-.931-3.994-2.082s2.85-2.081,3.994-2.081a2.081,2.081,0,0,1,0,4.162Z" transform="translate(-143.764 71.443)" fill="#d53128"/>
    <path id="パス_6824" data-name="パス 6824" d="M1304.32,799.053a6.173,6.173,0,0,0-1.706-.417v-.1h-.083a6.459,6.459,0,0,0-1.865-3.788c-3.289-3.237-10.184-3.162-13.46.13l-.042.043a6.544,6.544,0,0,0-1.816,3.86h-.073v.059a6.428,6.428,0,0,0-3.852,1.878c-3.316,3.35-3.336,10.154-.04,13.483a6.439,6.439,0,0,0,3.816,1.853v.068h.112a6.253,6.253,0,0,0,.424,1.685c1.147,2.81,4.275,4.556,8.164,4.556a9.575,9.575,0,0,0,6.862-2.507,6.44,6.44,0,0,0,1.411-2.115,6.321,6.321,0,0,0,.428-1.7h.106v-.092a6.228,6.228,0,0,0,1.709-.454c2.818-1.2,4.546-4.391,4.507-8.325C1308.884,803.3,1307.121,800.184,1304.32,799.053Zm-16.241,9.505a1.249,1.249,0,0,1,0-2.5c.686,0,2.4.559,2.4,1.249S1288.765,808.559,1288.079,808.559Zm5.844,5.873a1.246,1.246,0,0,1-1.243-1.249c0-.69.556-2.408,1.243-2.408s1.243,1.718,1.243,2.408A1.246,1.246,0,0,1,1293.923,814.432Zm0-10.586c-.686,0-1.243-1.718-1.243-2.409a1.243,1.243,0,1,1,2.485,0C1295.166,802.127,1294.609,803.846,1293.923,803.846Zm5.843,4.713c-.686,0-2.4-.559-2.4-1.248s1.71-1.249,2.4-1.249a1.249,1.249,0,0,1,0,2.5Z" transform="translate(-137.923 47.633)" fill="#d53128"/>
  </g>
</svg>
