<svg xmlns="http://www.w3.org/2000/svg" width="293" height="5.583" viewBox="0 0 293 5.583">
  <g id="title_line" transform="translate(-447.037 -1876.677)">
    <rect id="長方形_1398" data-name="長方形 1398" width="2.798" height="2.792" transform="translate(447.037 1876.677)" fill="#d53128"/>
    <rect id="長方形_1399" data-name="長方形 1399" width="2.798" height="2.791" transform="translate(449.835 1879.469)" fill="#d53128"/>
    <rect id="長方形_1400" data-name="長方形 1400" width="2.798" height="2.792" transform="translate(452.633 1876.677)" fill="#d53128"/>
    <rect id="長方形_1401" data-name="長方形 1401" width="2.798" height="2.791" transform="translate(455.431 1879.469)" fill="#d53128"/>
    <rect id="長方形_1402" data-name="長方形 1402" width="2.798" height="2.792" transform="translate(458.229 1876.677)" fill="#d53128"/>
    <rect id="長方形_1403" data-name="長方形 1403" width="2.798" height="2.791" transform="translate(461.026 1879.469)" fill="#d53128"/>
    <rect id="長方形_1404" data-name="長方形 1404" width="2.798" height="2.792" transform="translate(463.824 1876.677)" fill="#d53128"/>
    <rect id="長方形_1405" data-name="長方形 1405" width="2.798" height="2.791" transform="translate(466.622 1879.469)" fill="#d53128"/>
    <rect id="長方形_1406" data-name="長方形 1406" width="2.798" height="2.792" transform="translate(469.42 1876.677)" fill="#d53128"/>
    <rect id="長方形_1407" data-name="長方形 1407" width="2.798" height="2.791" transform="translate(472.218 1879.469)" fill="#d53128"/>
    <rect id="長方形_1408" data-name="長方形 1408" width="2.798" height="2.792" transform="translate(475.016 1876.677)" fill="#d53128"/>
    <rect id="長方形_1409" data-name="長方形 1409" width="2.798" height="2.791" transform="translate(477.813 1879.469)" fill="#d53128"/>
    <rect id="長方形_1410" data-name="長方形 1410" width="2.798" height="2.792" transform="translate(480.611 1876.677)" fill="#d53128"/>
    <rect id="長方形_1411" data-name="長方形 1411" width="2.798" height="2.791" transform="translate(483.409 1879.469)" fill="#d53128"/>
    <rect id="長方形_1412" data-name="長方形 1412" width="2.798" height="2.792" transform="translate(486.207 1876.677)" fill="#d53128"/>
    <rect id="長方形_1413" data-name="長方形 1413" width="2.798" height="2.791" transform="translate(489.005 1879.469)" fill="#d53128"/>
    <rect id="長方形_1414" data-name="長方形 1414" width="2.798" height="2.792" transform="translate(491.803 1876.677)" fill="#d53128"/>
    <rect id="長方形_1415" data-name="長方形 1415" width="2.798" height="2.791" transform="translate(494.601 1879.469)" fill="#d53128"/>
    <rect id="長方形_1416" data-name="長方形 1416" width="2.797" height="2.792" transform="translate(497.398 1876.677)" fill="#d53128"/>
    <rect id="長方形_1417" data-name="長方形 1417" width="2.798" height="2.791" transform="translate(500.195 1879.469)" fill="#d53128"/>
    <rect id="長方形_1418" data-name="長方形 1418" width="2.798" height="2.792" transform="translate(502.993 1876.677)" fill="#d53128"/>
    <rect id="長方形_1419" data-name="長方形 1419" width="2.798" height="2.791" transform="translate(505.635 1879.469)" fill="#d53128"/>
    <rect id="長方形_1420" data-name="長方形 1420" width="2.798" height="2.792" transform="translate(508.426 1876.677)" fill="#d53128"/>
    <rect id="長方形_1421" data-name="長方形 1421" width="2.798" height="2.791" transform="translate(511.216 1879.469)" fill="#d53128"/>
    <rect id="長方形_1422" data-name="長方形 1422" width="2.798" height="2.792" transform="translate(514.007 1876.677)" fill="#d53128"/>
    <rect id="長方形_1423" data-name="長方形 1423" width="2.798" height="2.791" transform="translate(516.797 1879.469)" fill="#d53128"/>
    <rect id="長方形_1424" data-name="長方形 1424" width="2.798" height="2.792" transform="translate(519.588 1876.677)" fill="#d53128"/>
    <rect id="長方形_1425" data-name="長方形 1425" width="2.798" height="2.791" transform="translate(522.378 1879.469)" fill="#d53128"/>
    <rect id="長方形_1426" data-name="長方形 1426" width="2.798" height="2.792" transform="translate(525.169 1876.677)" fill="#d53128"/>
    <rect id="長方形_1427" data-name="長方形 1427" width="2.798" height="2.791" transform="translate(527.959 1879.469)" fill="#d53128"/>
    <rect id="長方形_1428" data-name="長方形 1428" width="2.798" height="2.792" transform="translate(530.749 1876.677)" fill="#d53128"/>
    <rect id="長方形_1429" data-name="長方形 1429" width="2.798" height="2.791" transform="translate(533.54 1879.469)" fill="#d53128"/>
    <rect id="長方形_1430" data-name="長方形 1430" width="2.798" height="2.792" transform="translate(536.33 1876.677)" fill="#d53128"/>
    <rect id="長方形_1431" data-name="長方形 1431" width="2.798" height="2.791" transform="translate(539.121 1879.469)" fill="#d53128"/>
    <rect id="長方形_1432" data-name="長方形 1432" width="2.798" height="2.792" transform="translate(541.911 1876.677)" fill="#d53128"/>
    <rect id="長方形_1433" data-name="長方形 1433" width="2.798" height="2.791" transform="translate(544.702 1879.469)" fill="#d53128"/>
    <rect id="長方形_1434" data-name="長方形 1434" width="2.798" height="2.792" transform="translate(547.492 1876.677)" fill="#d53128"/>
    <rect id="長方形_1435" data-name="長方形 1435" width="2.798" height="2.791" transform="translate(550.283 1879.469)" fill="#d53128"/>
    <rect id="長方形_1436" data-name="長方形 1436" width="2.798" height="2.792" transform="translate(553.073 1876.677)" fill="#d53128"/>
    <rect id="長方形_1437" data-name="長方形 1437" width="2.798" height="2.791" transform="translate(555.863 1879.469)" fill="#d53128"/>
    <rect id="長方形_1438" data-name="長方形 1438" width="2.798" height="2.792" transform="translate(558.654 1876.677)" fill="#d53128"/>
    <rect id="長方形_1439" data-name="長方形 1439" width="2.797" height="2.791" transform="translate(561.444 1879.469)" fill="#d53128"/>
    <rect id="長方形_1440" data-name="長方形 1440" width="2.798" height="2.792" transform="translate(564.234 1876.677)" fill="#d53128"/>
    <rect id="長方形_1441" data-name="長方形 1441" width="2.798" height="2.791" transform="translate(567.024 1879.469)" fill="#d53128"/>
    <rect id="長方形_1442" data-name="長方形 1442" width="2.798" height="2.792" transform="translate(569.815 1876.677)" fill="#d53128"/>
    <rect id="長方形_1443" data-name="長方形 1443" width="2.798" height="2.791" transform="translate(572.605 1879.469)" fill="#d53128"/>
    <rect id="長方形_1444" data-name="長方形 1444" width="2.798" height="2.792" transform="translate(575.396 1876.677)" fill="#d53128"/>
    <rect id="長方形_1445" data-name="長方形 1445" width="2.798" height="2.791" transform="translate(578.186 1879.469)" fill="#d53128"/>
    <rect id="長方形_1446" data-name="長方形 1446" width="2.798" height="2.792" transform="translate(580.976 1876.677)" fill="#d53128"/>
    <rect id="長方形_1447" data-name="長方形 1447" width="2.798" height="2.791" transform="translate(583.767 1879.469)" fill="#d53128"/>
    <rect id="長方形_1448" data-name="長方形 1448" width="2.798" height="2.792" transform="translate(586.557 1876.677)" fill="#d53128"/>
    <rect id="長方形_1449" data-name="長方形 1449" width="2.798" height="2.791" transform="translate(589.348 1879.469)" fill="#d53128"/>
    <rect id="長方形_1450" data-name="長方形 1450" width="2.798" height="2.792" transform="translate(592.138 1876.677)" fill="#d53128"/>
    <rect id="長方形_1451" data-name="長方形 1451" width="2.798" height="2.791" transform="translate(594.929 1879.469)" fill="#d53128"/>
    <rect id="長方形_1452" data-name="長方形 1452" width="2.798" height="2.792" transform="translate(597.719 1876.677)" fill="#d53128"/>
    <rect id="長方形_1453" data-name="長方形 1453" width="2.798" height="2.791" transform="translate(600.51 1879.469)" fill="#d53128"/>
    <rect id="長方形_1454" data-name="長方形 1454" width="2.798" height="2.792" transform="translate(603.3 1876.677)" fill="#d53128"/>
    <rect id="長方形_1455" data-name="長方形 1455" width="2.798" height="2.791" transform="translate(606.09 1879.469)" fill="#d53128"/>
    <rect id="長方形_1456" data-name="長方形 1456" width="2.798" height="2.792" transform="translate(608.881 1876.677)" fill="#d53128"/>
    <rect id="長方形_1457" data-name="長方形 1457" width="2.798" height="2.791" transform="translate(611.671 1879.469)" fill="#d53128"/>
    <rect id="長方形_1458" data-name="長方形 1458" width="2.798" height="2.792" transform="translate(614.462 1876.677)" fill="#d53128"/>
    <rect id="長方形_1459" data-name="長方形 1459" width="2.798" height="2.791" transform="translate(617.252 1879.469)" fill="#d53128"/>
    <rect id="長方形_1460" data-name="長方形 1460" width="2.798" height="2.792" transform="translate(620.043 1876.677)" fill="#d53128"/>
    <rect id="長方形_1461" data-name="長方形 1461" width="2.797" height="2.791" transform="translate(622.833 1879.469)" fill="#d53128"/>
    <rect id="長方形_1462" data-name="長方形 1462" width="2.798" height="2.792" transform="translate(625.622 1876.677)" fill="#d53128"/>
    <rect id="長方形_1463" data-name="長方形 1463" width="2.798" height="2.791" transform="translate(628.413 1879.469)" fill="#d53128"/>
    <rect id="長方形_1464" data-name="長方形 1464" width="2.798" height="2.792" transform="translate(631.203 1876.677)" fill="#d53128"/>
    <rect id="長方形_1465" data-name="長方形 1465" width="2.798" height="2.791" transform="translate(633.994 1879.469)" fill="#d53128"/>
    <rect id="長方形_1466" data-name="長方形 1466" width="2.798" height="2.792" transform="translate(636.784 1876.677)" fill="#d53128"/>
    <rect id="長方形_1467" data-name="長方形 1467" width="2.798" height="2.791" transform="translate(639.575 1879.469)" fill="#d53128"/>
    <rect id="長方形_1468" data-name="長方形 1468" width="2.798" height="2.792" transform="translate(642.365 1876.677)" fill="#d53128"/>
    <rect id="長方形_1469" data-name="長方形 1469" width="2.798" height="2.791" transform="translate(645.156 1879.469)" fill="#d53128"/>
    <rect id="長方形_1470" data-name="長方形 1470" width="2.798" height="2.792" transform="translate(647.946 1876.677)" fill="#d53128"/>
    <rect id="長方形_1471" data-name="長方形 1471" width="2.798" height="2.791" transform="translate(650.736 1879.469)" fill="#d53128"/>
    <rect id="長方形_1472" data-name="長方形 1472" width="2.798" height="2.792" transform="translate(653.527 1876.677)" fill="#d53128"/>
    <rect id="長方形_1473" data-name="長方形 1473" width="2.798" height="2.791" transform="translate(656.317 1879.469)" fill="#d53128"/>
    <rect id="長方形_1474" data-name="長方形 1474" width="2.798" height="2.792" transform="translate(659.108 1876.677)" fill="#d53128"/>
    <rect id="長方形_1475" data-name="長方形 1475" width="2.798" height="2.791" transform="translate(661.898 1879.469)" fill="#d53128"/>
    <rect id="長方形_1476" data-name="長方形 1476" width="2.798" height="2.792" transform="translate(664.689 1876.677)" fill="#d53128"/>
    <rect id="長方形_1477" data-name="長方形 1477" width="2.798" height="2.791" transform="translate(667.479 1879.469)" fill="#d53128"/>
    <rect id="長方形_1478" data-name="長方形 1478" width="2.798" height="2.792" transform="translate(670.27 1876.677)" fill="#d53128"/>
    <rect id="長方形_1479" data-name="長方形 1479" width="2.798" height="2.791" transform="translate(673.06 1879.469)" fill="#d53128"/>
    <rect id="長方形_1480" data-name="長方形 1480" width="2.798" height="2.792" transform="translate(675.851 1876.677)" fill="#d53128"/>
    <rect id="長方形_1481" data-name="長方形 1481" width="2.798" height="2.791" transform="translate(678.641 1879.469)" fill="#d53128"/>
    <rect id="長方形_1482" data-name="長方形 1482" width="2.798" height="2.792" transform="translate(681.283 1876.677)" fill="#d53128"/>
    <rect id="長方形_1483" data-name="長方形 1483" width="2.797" height="2.791" transform="translate(684.081 1879.469)" fill="#d53128"/>
    <rect id="長方形_1484" data-name="長方形 1484" width="2.798" height="2.792" transform="translate(686.878 1876.677)" fill="#d53128"/>
    <rect id="長方形_1485" data-name="長方形 1485" width="2.798" height="2.791" transform="translate(689.676 1879.469)" fill="#d53128"/>
    <rect id="長方形_1486" data-name="長方形 1486" width="2.798" height="2.792" transform="translate(692.474 1876.677)" fill="#d53128"/>
    <rect id="長方形_1487" data-name="長方形 1487" width="2.798" height="2.791" transform="translate(695.271 1879.469)" fill="#d53128"/>
    <rect id="長方形_1488" data-name="長方形 1488" width="2.798" height="2.792" transform="translate(698.069 1876.677)" fill="#d53128"/>
    <rect id="長方形_1489" data-name="長方形 1489" width="2.798" height="2.791" transform="translate(700.867 1879.469)" fill="#d53128"/>
    <rect id="長方形_1490" data-name="長方形 1490" width="2.798" height="2.792" transform="translate(703.665 1876.677)" fill="#d53128"/>
    <rect id="長方形_1491" data-name="長方形 1491" width="2.798" height="2.791" transform="translate(706.463 1879.469)" fill="#d53128"/>
    <rect id="長方形_1492" data-name="長方形 1492" width="2.798" height="2.792" transform="translate(709.261 1876.677)" fill="#d53128"/>
    <rect id="長方形_1493" data-name="長方形 1493" width="2.798" height="2.791" transform="translate(712.059 1879.469)" fill="#d53128"/>
    <rect id="長方形_1494" data-name="長方形 1494" width="2.798" height="2.792" transform="translate(714.856 1876.677)" fill="#d53128"/>
    <rect id="長方形_1495" data-name="長方形 1495" width="2.798" height="2.791" transform="translate(717.654 1879.469)" fill="#d53128"/>
    <rect id="長方形_1496" data-name="長方形 1496" width="2.798" height="2.792" transform="translate(720.452 1876.677)" fill="#d53128"/>
    <rect id="長方形_1497" data-name="長方形 1497" width="2.798" height="2.791" transform="translate(723.25 1879.469)" fill="#d53128"/>
    <rect id="長方形_1498" data-name="長方形 1498" width="2.798" height="2.792" transform="translate(726.048 1876.677)" fill="#d53128"/>
    <rect id="長方形_1499" data-name="長方形 1499" width="2.798" height="2.791" transform="translate(728.846 1879.469)" fill="#d53128"/>
    <rect id="長方形_1500" data-name="長方形 1500" width="2.798" height="2.792" transform="translate(731.644 1876.677)" fill="#d53128"/>
    <rect id="長方形_1501" data-name="長方形 1501" width="2.798" height="2.791" transform="translate(734.441 1879.469)" fill="#d53128"/>
    <rect id="長方形_1502" data-name="長方形 1502" width="2.798" height="2.792" transform="translate(737.239 1876.677)" fill="#d53128"/>
  </g>
</svg>
