<svg xmlns="http://www.w3.org/2000/svg" width="60" height="60" viewBox="0 0 60 60">
  <path id="ume" d="M145.744,472.516a12.365,12.365,0,0,0-3.413-.836v-.2l-.165,0a12.924,12.924,0,0,0-3.732-7.576c-6.577-6.474-20.367-6.325-26.919.261l-.084.084a13.084,13.084,0,0,0-3.631,7.72l-.147,0v.117a12.856,12.856,0,0,0-7.7,3.756c-6.631,6.7-6.671,20.309-.078,26.967a12.883,12.883,0,0,0,7.631,3.707v.136h.225a12.427,12.427,0,0,0,.848,3.37c2.294,5.621,8.549,9.113,16.328,9.112,5.688,0,10.572-1.843,13.725-5.013a12.909,12.909,0,0,0,2.823-4.23,12.646,12.646,0,0,0,.854-3.392h.212v-.184a12.47,12.47,0,0,0,3.42-.908c5.636-2.4,9.091-8.782,9.015-16.65C154.873,481,151.346,474.776,145.744,472.516Zm-32.482,19.011a2.5,2.5,0,0,1,0-5c1.373,0,4.793,1.119,4.793,2.5S114.635,491.527,113.262,491.527Zm11.687,11.746a2.491,2.491,0,0,1-2.485-2.5c0-1.379,1.112-4.816,2.485-4.816s2.486,3.437,2.486,4.816A2.491,2.491,0,0,1,124.948,503.273Zm0-21.173c-1.372,0-2.485-3.438-2.485-4.817a2.485,2.485,0,1,1,4.97,0C127.434,478.663,126.322,482.1,124.948,482.1Zm11.687,9.426c-1.372,0-4.792-1.118-4.792-2.5s3.42-2.5,4.792-2.5a2.5,2.5,0,0,1,0,5Z" transform="translate(-94.949 -459.143)" fill="#d53128"/>
</svg>
